<svg xmlns="http://www.w3.org/2000/svg" width="24.325" height="27.925" viewBox="0 0 24.325 27.925">
  <path id="_4737445_alarm_alert_bell_notification_ring_icon" data-name="4737445_alarm_alert_bell_notification_ring_icon" d="M26.27,17.642l-.529-.426a1.216,1.216,0,0,1-.456-.949V11.354a9.122,9.122,0,0,0-7.352-8.946,1.824,1.824,0,0,0-3.533,0,9.122,9.122,0,0,0-7.358,8.946v4.914a1.216,1.216,0,0,1-.456.949l-.529.426A5.473,5.473,0,0,0,4,21.9v1.01a2.433,2.433,0,0,0,2.433,2.433h5.023a4.865,4.865,0,0,0,9.408,0h5.029a2.433,2.433,0,0,0,2.433-2.433v-1a5.473,5.473,0,0,0-2.056-4.269ZM16.163,26.557a2.433,2.433,0,0,1-2.092-1.216h4.19A2.433,2.433,0,0,1,16.163,26.557Zm9.73-3.649H6.433v-1a3.041,3.041,0,0,1,1.143-2.372l.529-.426a3.649,3.649,0,0,0,1.368-2.846V11.354a6.69,6.69,0,0,1,13.379,0v4.914a3.649,3.649,0,0,0,1.368,2.852l.529.426a3.041,3.041,0,0,1,1.143,2.366Z" transform="translate(-4 -1.039)" fill="#666"/>
</svg>
