<svg xmlns="http://www.w3.org/2000/svg" width="30.226" height="31.077" viewBox="0 0 30.226 31.077">
  <g id="Layer_x0020_1" transform="translate(-11.872 -81.16)">
    <path id="Path_6432" data-name="Path 6432" d="M18.961,88.528h7.079v-.756a6.629,6.629,0,0,1,6.612-6.612h8.5a.945.945,0,0,1,.945.945v28.242c-.038,2.345,0,.025-.024,1.89H11.883c-.009-1.9-.009,0-.01-1.89V95.617A7.107,7.107,0,0,1,18.961,88.528Zm15.627,21.819v-3.819H33.549v3.819Zm-2.929,0v-4.764a.945.945,0,0,1,.945-.945h2.929a.944.944,0,0,1,.945.945v4.764h3.73V83.05H32.653a4.74,4.74,0,0,0-4.723,4.723v22.575Zm-15.7-10.905H18.6a.945.945,0,0,1,.945.945v2.835a.945.945,0,0,1-.945.945H15.957a.944.944,0,0,1-.945-.945v-2.835A.944.944,0,0,1,15.957,99.442Zm1.7,1.89H16.9v.945h.756Zm3.543-1.89h2.646a.945.945,0,0,1,.945.945v2.835a.945.945,0,0,1-.945.945H21.2a.944.944,0,0,1-.945-.945v-2.835A.944.944,0,0,1,21.2,99.442Zm1.7,1.89h-.756v.945H22.9Zm-6.944-7.7H18.6a.945.945,0,0,1,.945.945v2.835a.945.945,0,0,1-.945.945H15.957a.945.945,0,0,1-.945-.945V94.576A.945.945,0,0,1,15.957,93.631Zm1.7,1.89H16.9v.945h.756Zm3.543-1.89h2.646a.945.945,0,0,1,.945.945v2.835a.945.945,0,0,1-.945.945H21.2a.945.945,0,0,1-.945-.945V94.576A.945.945,0,0,1,21.2,93.631Zm1.7,1.89h-.756v.945H22.9Zm7.153-5.669a.945.945,0,0,1,0-1.89h8.031a.945.945,0,0,1,0,1.89H30.054Zm0,10.393a.945.945,0,0,1,0-1.89h8.031a.945.945,0,0,1,0,1.89H30.054Zm0-5.2a.945.945,0,0,1,0-1.89h8.031a.945.945,0,0,1,0,1.89H30.054Zm-4.013-4.631H18.961a5.217,5.217,0,0,0-5.2,5.2v14.731H26.041Z" fill="#fff"/>
  </g>
</svg>
