<svg xmlns="http://www.w3.org/2000/svg" width="30.226" height="31.997" viewBox="0 0 30.226 31.997">
  <g id="Group_577" data-name="Group 577" transform="translate(0 0)">
    <path id="_1976053_home_home_page_homepage_homepages_icon" data-name="1976053_home_home page_homepage_homepages_icon" d="M32.008,12.465l-11.934-9.7a4.019,4.019,0,0,0-5.045,0h0L3.1,12.464a1.768,1.768,0,0,0-.658,1.38V32.088a1.788,1.788,0,0,0,1.778,1.786h26.67a1.788,1.788,0,0,0,1.778-1.786V13.843A1.773,1.773,0,0,0,32.008,12.465ZM30.885,32.1c-9.2.158-13.232.025-26.668,0V13.843l11.934-9.7a2.231,2.231,0,0,1,2.8,0l11.934,9.7V32.1Z" transform="translate(-2.439 -1.878)" fill="#fbfbfb"/>
    <path id="_1976053_home_home_page_homepage_homepages_icon-2" data-name="1976053_home_home page_homepage_homepages_icon" d="M29.391,11.571,18.513,2.693a3.651,3.651,0,0,0-4.6,0h0L3.038,11.569a1.622,1.622,0,0,0-.6,1.263v16.7A1.633,1.633,0,0,0,4.06,31.171h24.31a1.633,1.633,0,0,0,1.621-1.635v-16.7A1.626,1.626,0,0,0,29.391,11.571ZM28.368,29.545c-8.383.144-12.061.023-24.308,0V12.832L14.937,3.956a2.027,2.027,0,0,1,2.554,0l10.878,8.876V29.545Z" transform="translate(-1.102 -0.278)" fill="#fbfbfb"/>
  </g>
</svg>
