<svg xmlns="http://www.w3.org/2000/svg" width="39.417" height="39.417" viewBox="0 0 39.417 39.417">
  <g id="Layer_10" data-name="Layer 10" transform="translate(0 0)">
    <path id="Path_336" data-name="Path 336" d="M22.022,40.417H19.395a3.942,3.942,0,0,1-3.942-3.469A16.659,16.659,0,0,1,12.891,35.9a3.942,3.942,0,0,1-5.256-.328L5.848,33.716A3.942,3.942,0,0,1,5.52,28.46a16.66,16.66,0,0,1-1.051-2.5A3.942,3.942,0,0,1,1,22.022V19.395a3.942,3.942,0,0,1,3.469-3.942A16.66,16.66,0,0,1,5.52,12.891a3.942,3.942,0,0,1,.328-5.256L7.7,5.848a3.942,3.942,0,0,1,5.256-.328,16.661,16.661,0,0,1,2.5-1.051A3.942,3.942,0,0,1,19.395,1h2.628a3.942,3.942,0,0,1,3.942,3.469A16.66,16.66,0,0,1,28.526,5.52a3.942,3.942,0,0,1,5.256.328L35.569,7.7a3.942,3.942,0,0,1,.328,5.256,16.66,16.66,0,0,1,1.051,2.562,3.942,3.942,0,0,1,3.469,3.876v2.628a3.942,3.942,0,0,1-3.469,3.942A16.659,16.659,0,0,1,35.9,28.526a3.942,3.942,0,0,1-.328,5.256l-1.853,1.787a3.942,3.942,0,0,1-5.256.328A16.66,16.66,0,0,1,25.9,36.948,3.942,3.942,0,0,1,22.022,40.417Zm-9.316-7.45a1.235,1.235,0,0,1,.67.184A14.453,14.453,0,0,0,17.1,34.688,1.314,1.314,0,0,1,18.081,36v.473a1.314,1.314,0,0,0,1.314,1.314h2.628a1.314,1.314,0,0,0,1.314-1.314v-.512a1.314,1.314,0,0,1,.985-1.314,14.453,14.453,0,0,0,3.718-1.537,1.314,1.314,0,0,1,1.59.2l.368.368a1.314,1.314,0,0,0,1.866,0l1.853-1.853a1.314,1.314,0,0,0,0-1.866l-.368-.368a1.314,1.314,0,0,1-.2-1.59,14.453,14.453,0,0,0,1.537-3.718A1.314,1.314,0,0,1,36,23.3h.473a1.314,1.314,0,0,0,1.314-1.314V19.395a1.314,1.314,0,0,0-1.314-1.314h-.512a1.314,1.314,0,0,1-1.314-.985,14.453,14.453,0,0,0-1.537-3.718,1.314,1.314,0,0,1,.2-1.59l.368-.368a1.314,1.314,0,0,0,0-1.866L31.863,7.7A1.314,1.314,0,0,0,30,7.7l-.368.368a1.314,1.314,0,0,1-1.59.2,14.453,14.453,0,0,0-3.718-1.537,1.314,1.314,0,0,1-.985-1.314V4.942a1.314,1.314,0,0,0-1.314-1.314H19.395a1.314,1.314,0,0,0-1.314,1.314v.512A1.314,1.314,0,0,1,17.1,6.768a14.453,14.453,0,0,0-3.718,1.537,1.314,1.314,0,0,1-1.59-.2L11.419,7.7a1.314,1.314,0,0,0-1.866,0L7.7,9.553a1.314,1.314,0,0,0,0,1.866l.368.368a1.314,1.314,0,0,1,.2,1.59A14.453,14.453,0,0,0,6.729,17.1a1.314,1.314,0,0,1-1.314.985H4.942a1.314,1.314,0,0,0-1.314,1.314v2.628a1.314,1.314,0,0,0,1.314,1.314h.512a1.314,1.314,0,0,1,1.314.985A14.453,14.453,0,0,0,8.305,28.04a1.314,1.314,0,0,1-.2,1.59L7.74,30a1.314,1.314,0,0,0,0,1.866l1.813,1.853a1.314,1.314,0,0,0,1.866,0l.368-.368A1.314,1.314,0,0,1,12.707,32.967Z" transform="translate(-1 -1)" fill="#fff"/>
    <path id="Path_337" data-name="Path 337" d="M18.274,27.548a9.274,9.274,0,1,1,9.274-9.274A9.274,9.274,0,0,1,18.274,27.548Zm0-15.9A6.624,6.624,0,1,0,24.9,18.274,6.624,6.624,0,0,0,18.274,11.65Z" transform="translate(1.435 1.435)" fill="#fff"/>
  </g>
</svg>
