<svg id="Group_725" data-name="Group 725" xmlns="http://www.w3.org/2000/svg" width="112" height="56" viewBox="0 0 112 56">
  <path id="Rectangle_249" data-name="Rectangle 249" d="M6,0H56a0,0,0,0,1,0,0V56a0,0,0,0,1,0,0H6a6,6,0,0,1-6-6V6A6,6,0,0,1,6,0Z" fill="#2c92d5"/>
  <path id="_2867906_grid_icon" data-name="2867906_grid_icon" d="M6.556,3h7.111a3.556,3.556,0,0,1,3.556,3.556v7.111a3.556,3.556,0,0,1-3.556,3.556H6.556A3.556,3.556,0,0,1,3,13.667V6.556A3.566,3.566,0,0,1,6.556,3Zm0,3.556v7.111h7.111V6.556ZM24.333,3h7.111A3.556,3.556,0,0,1,35,6.556v7.111a3.556,3.556,0,0,1-3.556,3.556H24.333a3.556,3.556,0,0,1-3.556-3.556V6.556A3.566,3.566,0,0,1,24.333,3Zm0,3.556v7.111h7.111V6.556ZM6.556,20.778h7.111a3.556,3.556,0,0,1,3.556,3.556v7.111A3.556,3.556,0,0,1,13.667,35H6.556A3.556,3.556,0,0,1,3,31.444V24.333A3.566,3.566,0,0,1,6.556,20.778Zm0,3.556v7.111h7.111V24.333Zm17.778-3.556h7.111A3.556,3.556,0,0,1,35,24.333v7.111A3.556,3.556,0,0,1,31.444,35H24.333a3.556,3.556,0,0,1-3.556-3.556V24.333A3.566,3.566,0,0,1,24.333,20.778Zm0,3.556v7.111h7.111V24.333Z" transform="translate(9 9)" fill="#fbfbfb"/>
  <g id="Rectangle_250" data-name="Rectangle 250" transform="translate(56)" fill="none" stroke="#2c92d5" stroke-width="2">
    <path d="M0,0H50a6,6,0,0,1,6,6V50a6,6,0,0,1-6,6H0a0,0,0,0,1,0,0V0A0,0,0,0,1,0,0Z" stroke="none"/>
    <path d="M2,1H50a5,5,0,0,1,5,5V50a5,5,0,0,1-5,5H2a1,1,0,0,1-1-1V2A1,1,0,0,1,2,1Z" fill="none"/>
  </g>
  <path id="_7124099_menu_alt_icon" data-name="7124099_menu_alt_icon" d="M4,6H26.325M4,17.95H19.933M4,29.9H26.325" transform="translate(68.5 10.5)" fill="none" stroke="#2c92d5" stroke-linecap="round" stroke-linejoin="round" stroke-width="5"/>
</svg>
