<svg xmlns="http://www.w3.org/2000/svg" width="154.602" height="242.08" viewBox="0 0 154.602 242.08">
  <g id="b" transform="translate(25.289 21.55)" opacity="0.15">
    <g id="c" transform="translate(-24.989 -21.3)">
      <g id="Group_673" data-name="Group 673">
        <path id="Path_6475" data-name="Path 6475" d="M57.634,83.81,29.347,91.615a21.643,21.643,0,0,0-15.093,26.676l11.372,40.752a5.012,5.012,0,0,0,4.833,3.663h0a5.009,5.009,0,0,0,5.005-5.005V127.707a13.631,13.631,0,0,1,11.545-13.482l23.761-3.721" transform="translate(-11.557 76.917)" fill="none" stroke="#fff" stroke-width="0.5"/>
        <path id="Path_6476" data-name="Path 6476" d="M31.385,165.568a6.944,6.944,0,0,1-6.674-5.063L13.339,119.752A23.582,23.582,0,0,1,29.774,90.679l28.287-7.805a1.919,1.919,0,1,1,1.016,3.7L30.79,94.38A19.706,19.706,0,0,0,17.04,118.7L28.412,159.45a3.086,3.086,0,0,0,6.06-.825V128.632a15.486,15.486,0,0,1,13.175-15.38l23.761-3.72A1.931,1.931,0,0,1,72,113.347l-23.761,3.72a11.664,11.664,0,0,0-9.915,11.583v29.994a6.953,6.953,0,0,1-6.942,6.942Z" transform="translate(-12.464 75.993)" fill="#fff" stroke="#fff" stroke-width="0.5"/>
        <path id="Path_6477" data-name="Path 6477" d="M75.026,83.81l28.268,7.805a21.643,21.643,0,0,1,15.093,26.676l-11.372,40.752a5.012,5.012,0,0,1-4.833,3.663h0a5.009,5.009,0,0,1-5.005-5.005V127.707a13.631,13.631,0,0,0-11.545-13.482L61.87,110.505" transform="translate(32.879 76.917)" fill="none" stroke="#fff" stroke-width="0.5"/>
        <path id="Path_6478" data-name="Path 6478" d="M103.119,165.577a6.953,6.953,0,0,1-6.942-6.942V128.641a11.664,11.664,0,0,0-9.915-11.583L62.5,113.338a1.931,1.931,0,0,1,.595-3.816l23.761,3.72a15.5,15.5,0,0,1,13.175,15.38v29.994a3.086,3.086,0,0,0,6.06.825l11.372-40.752a19.706,19.706,0,0,0-13.75-24.317L75.446,86.566a1.919,1.919,0,1,1,1.016-3.7L104.73,90.67a23.583,23.583,0,0,1,16.435,29.073L109.793,160.5a6.939,6.939,0,0,1-6.674,5.063Z" transform="translate(31.96 75.983)" fill="#fff" stroke="#fff" stroke-width="0.5"/>
        <g id="Group_672" data-name="Group 672" transform="translate(53.612 198.258)">
          <path id="Path_6482" data-name="Path 6482" d="M80.5,116.1H45.255L41.42,104.38H84.339Z" transform="translate(-39.502 -102.462)" fill="none" stroke="#fff" stroke-width="0.5"/>
          <path id="Path_6483" data-name="Path 6483" d="M81.422,118.952H46.174a1.917,1.917,0,0,1-1.822-1.323l-3.836-11.717a1.908,1.908,0,0,1,.269-1.726,1.935,1.935,0,0,1,1.553-.805H85.257a1.884,1.884,0,0,1,1.553.805,1.917,1.917,0,0,1,.268,1.726l-3.836,11.717a1.917,1.917,0,0,1-1.822,1.323ZM47.574,115.1H80.022l2.57-7.863H44.985l2.57,7.863Z" transform="translate(-40.42 -103.38)" fill="#fff" stroke="#fff" stroke-width="0.5"/>
        </g>
        <path id="Path_6484" data-name="Path 6484" d="M130.073,65.01C121.635,40.5,106.868,20.863,95.4,8.225a21.989,21.989,0,0,0-32.583,0C51.349,20.844,36.6,40.482,28.144,65.01,16.5,98.82,29.333,153.745,50.7,195.705a6.5,6.5,0,0,0,5.811,3.548h45.2a6.5,6.5,0,0,0,5.811-3.548c21.364-41.96,34.193-96.9,22.553-130.7ZM99.964,80.333A20.884,20.884,0,1,1,78.025,58.394,20.974,20.974,0,0,1,99.964,80.333Z" transform="translate(-2.109 0.922)" fill="none" stroke="#fff" stroke-width="0.5"/>
        <path id="Path_6485" data-name="Path 6485" d="M102.568,202.112h-45.2a8.4,8.4,0,0,1-7.518-4.6C21.754,142.3,18.225,91.324,27.181,65.3c8.63-25.084,23.838-45.086,35.056-57.437a23.9,23.9,0,0,1,35.44,0C108.9,20.232,124.1,40.235,132.734,65.3h0c8.956,26.024,5.427,77-22.668,132.21a8.4,8.4,0,0,1-7.518,4.6ZM79.958,3.855a20.08,20.08,0,0,0-14.863,6.6c-10.989,12.1-25.851,31.643-34.27,56.114-8.707,25.257-5.12,75,22.457,129.2a4.58,4.58,0,0,0,4.085,2.493h45.2a4.559,4.559,0,0,0,4.085-2.493c27.577-54.2,31.144-103.942,22.457-129.2h0c-8.419-24.451-23.281-44.012-34.27-56.114a20.151,20.151,0,0,0-14.863-6.6Zm.019,99.129A22.8,22.8,0,1,1,102.74,81.37h0a22.992,22.992,0,0,1-21.594,21.594c-.384.019-.767.038-1.151.038Zm-.058-41.769c-.326,0-.633,0-.959.019a20.2,20.2,0,1,0,.959,0ZM100.8,81.255Z" transform="translate(-2.967 0)" fill="#fff" stroke="#fff" stroke-width="0.5"/>
        <path id="Path_6487" data-name="Path 6487" d="M61.7,83.91H53.513a3.111,3.111,0,0,0-3.088,2.742L48.3,104.7a29.531,29.531,0,0,0,0,6.885c1.151,9.416,4.315,35.785,5.1,47.1a4.21,4.21,0,0,0,4.2,3.912h0a4.21,4.21,0,0,0,4.2-3.912c.786-11.334,3.951-37.684,5.1-47.1a27.571,27.571,0,0,0,0-6.885L64.77,86.652a3.109,3.109,0,0,0-3.088-2.742Z" transform="translate(20.237 77.009)" fill="none" stroke="#fff" stroke-width="0.5"/>
        <path id="Path_6488" data-name="Path 6488" d="M58.516,165.469a6.152,6.152,0,0,1-6.118-5.715c-.805-11.487-4.1-38.873-5.082-47a30.362,30.362,0,0,1,0-7.345l2.129-18.046a5.039,5.039,0,0,1,5.005-4.449h8.189a5.039,5.039,0,0,1,5.005,4.449l2.129,18.046a31.366,31.366,0,0,1,0,7.345c-1.266,10.452-4.315,35.939-5.082,47a6.166,6.166,0,0,1-6.118,5.715Zm-4.1-78.7a1.216,1.216,0,0,0-1.189,1.055l-2.129,18.046a27.683,27.683,0,0,0,0,6.424c1,8.15,4.3,35.632,5.1,47.215a2.288,2.288,0,0,0,4.564,0c.786-11.161,3.835-36.725,5.1-47.215a25.724,25.724,0,0,0,0-6.424L63.733,87.819a1.2,1.2,0,0,0-1.189-1.055H54.355Z" transform="translate(19.318 76.091)" fill="#fff" stroke="#fff" stroke-width="0.5"/>
        <path id="Path_6489" data-name="Path 6489" d="M68.94,27.791c-22.227,0-33.273-9.378-33.733-9.761a1.93,1.93,0,0,1,2.531-2.915c.1.077,10.509,8.822,31.2,8.822a62.875,62.875,0,0,0,18.391-2.589,1.923,1.923,0,0,1,1.112,3.682,67.181,67.181,0,0,1-19.523,2.742Z" transform="translate(7.801 13.441)" fill="#fff" stroke="#fff" stroke-width="0.5"/>
        <path id="Path_6490" data-name="Path 6490" d="M66.835,22.542a1.9,1.9,0,0,1-1.745-1.112,1.933,1.933,0,0,1,.921-2.57A29.583,29.583,0,0,0,72.281,15.1,1.94,1.94,0,0,1,75,15.312a1.914,1.914,0,0,1-.192,2.7,34.341,34.341,0,0,1-7.153,4.334,2.052,2.052,0,0,1-.825.173Z" transform="translate(35.662 13.435)" fill="#fff" stroke="#fff" stroke-width="0.5"/>
      </g>
    </g>
  </g>
</svg>
