<svg xmlns="http://www.w3.org/2000/svg" width="217.963" height="191.76" viewBox="0 0 217.963 191.76">
  <g id="Group_712" data-name="Group 712" transform="translate(-1142.5 -252.5)">
    <g id="Group_699" data-name="Group 699" transform="translate(53.232 102.875)" opacity="0.1">
      <path id="Path_323" data-name="Path 323" d="M164.713,76.392V55.928A40.928,40.928,0,0,0,123.785,15H41.928A40.928,40.928,0,0,0,1,55.928V76.392" transform="translate(1092.768 260.492)" fill="none" stroke="#f8f8f8" stroke-linecap="round" stroke-linejoin="round" stroke-width="9"/>
      <circle id="Ellipse_27" data-name="Ellipse 27" cx="41.238" cy="41.238" r="41.238" transform="translate(1135.006 154.125)" fill="none" stroke="#f8f8f8" stroke-linecap="round" stroke-linejoin="round" stroke-width="9"/>
    </g>
    <path id="Path_6543" data-name="Path 6543" d="M69.714,62.143H15.786A10.786,10.786,0,0,1,5,51.357V29.786A10.786,10.786,0,0,1,15.786,19H69.714A10.786,10.786,0,0,1,80.5,29.786V51.357A10.786,10.786,0,0,1,69.714,62.143ZM15.786,26.19a3.6,3.6,0,0,0-3.6,3.6V51.357a3.6,3.6,0,0,0,3.6,3.6H69.714a3.6,3.6,0,0,0,3.6-3.6V29.786a3.6,3.6,0,0,0-3.6-3.6Z" transform="translate(1279.963 311.579)" fill="#f8f8f8" opacity="0.1"/>
  </g>
</svg>
