<svg xmlns="http://www.w3.org/2000/svg" width="80" height="80" viewBox="0 0 80 80">
  <g id="Group_710" data-name="Group 710" transform="translate(-915 -161)">
    <circle id="Ellipse_43" data-name="Ellipse 43" cx="40" cy="40" r="40" transform="translate(915 161)" fill="#fff" opacity="0.2"/>
    <g id="Group_706" data-name="Group 706" transform="translate(-3 0.087)">
      <g id="Group_700" data-name="Group 700" transform="translate(-156.768 26.875)">
        <path id="Path_323" data-name="Path 323" d="M37.571,28.714V24.143A9.143,9.143,0,0,0,28.429,15H10.143A9.143,9.143,0,0,0,1,24.143v4.571" transform="translate(1092.768 166.237)" fill="none" stroke="#fff" stroke-linecap="round" stroke-linejoin="round" stroke-width="3"/>
        <circle id="Ellipse_27" data-name="Ellipse 27" cx="9.212" cy="9.212" r="9.212" transform="translate(1102.98 154.125)" fill="none" stroke="#fff" stroke-linecap="round" stroke-linejoin="round" stroke-width="3"/>
      </g>
      <path id="Path_6538" data-name="Path 6538" d="M23,31H8a3,3,0,0,1-3-3V22a3,3,0,0,1,3-3H23a3,3,0,0,1,3,3v6a3,3,0,0,1-3,3ZM8,21a1,1,0,0,0-1,1v6a1,1,0,0,0,1,1H23a1,1,0,0,0,1-1V22a1,1,0,0,0-1-1Z" transform="translate(963 175)" fill="#fff"/>
      <path id="Path_6540" data-name="Path 6540" d="M11.29,22.29h1v4.9h-.74l-2.1-3v3h-1v-4.9h.73l2.1,3Z" transform="translate(963 175)" fill="#fff"/>
      <path id="Path_6541" data-name="Path 6541" d="M14.13,26.27H16.2v.92h-3v-4.9h3v.93h-2v1H16v.91H14.13Z" transform="translate(963 175)" fill="#fff"/>
      <path id="Path_6542" data-name="Path 6542" d="M17.82,27.19l-1.29-4.9h1l.94,3.63,1-3.63h.84l1,3.63.93-3.63h.93l-1.28,4.9h-1.1l-.93-3.25L19,27.19Z" transform="translate(963 175)" fill="#fff"/>
    </g>
  </g>
</svg>
