<svg xmlns="http://www.w3.org/2000/svg" xmlns:xlink="http://www.w3.org/1999/xlink" width="519.653" height="494.203" viewBox="0 0 519.653 494.203">
  <defs>
    <clipPath id="clip-path">
      <path id="Path_6432" data-name="Path 6432" d="M156.768,198.33h97.356V186.314c0-57.867,40.887-105.154,90.93-105.154h116.91c7.176,0,12.99,6.731,12.99,15.028V545.313h39.17c17.093,0,17.093,30.049,0,30.049H20.105c-17.087,0-17.087-30.049,0-30.049h39.17V311.06C59.275,249.026,103.122,198.33,156.768,198.33ZM371.683,545.313V484.58h-14.3v60.734Zm-40.281,0V469.552c0-8.3,5.82-15.021,13-15.021H384.68c7.176,0,12.99,6.723,12.99,15.021v75.762h51.3v-434.1H345.054c-35.691,0-64.95,33.833-64.95,75.1v359ZM115.444,371.894h36.384c7.169,0,12.99,6.723,12.99,15.021v45.077c0,8.3-5.821,15.021-12.99,15.021H115.444c-7.176,0-12.99-6.723-12.99-15.021V386.915C102.454,378.618,108.268,371.894,115.444,371.894Zm23.388,30.049H128.44v15.021h10.392Zm48.725-30.049h36.384c7.169,0,12.99,6.723,12.99,15.021v45.077c0,8.3-5.821,15.021-12.99,15.021H187.557c-7.176,0-12.99-6.723-12.99-15.021V386.915C174.567,378.618,180.381,371.894,187.557,371.894Zm23.388,30.049H200.553v15.021h10.392V401.943Zm-95.5-122.456h36.384c7.169,0,12.99,6.731,12.99,15.028v45.077c0,8.29-5.821,15.021-12.99,15.021H115.444c-7.176,0-12.99-6.73-12.99-15.021V294.515C102.454,286.217,108.268,279.487,115.444,279.487Zm23.388,30.049H128.44v15.028h10.392Zm48.725-30.049h36.384c7.169,0,12.99,6.731,12.99,15.028v45.077c0,8.29-5.821,15.021-12.99,15.021H187.557c-7.176,0-12.99-6.73-12.99-15.021V294.515C174.567,286.217,180.381,279.487,187.557,279.487Zm23.388,30.049H200.553v15.028h10.392V309.536Zm98.368-90.147c-17.087,0-17.087-30.049,0-30.049H419.759c17.093,0,17.093,30.049,0,30.049Zm0,165.273c-17.087,0-17.087-30.049,0-30.049H419.759c17.093,0,17.093,30.049,0,30.049Zm0-82.637c-17.087,0-17.087-30.049,0-30.049H419.759c17.093,0,17.093,30.049,0,30.049Zm-55.189-73.646H156.768c-39.3,0-71.507,37.242-71.507,82.68V545.313H254.124V228.379Z" transform="translate(643.657 147.438)" fill="#2c92d5"/>
    </clipPath>
  </defs>
  <g id="Mask_Group_2" data-name="Mask Group 2" transform="translate(-650.947 -228.598)" opacity="0.14" clip-path="url(#clip-path)">
    <path id="Path_6433" data-name="Path 6433" d="M24,0H690a24,24,0,0,1,24,24V496a24,24,0,0,1-24,24H24A24,24,0,0,1,0,496V24A24,24,0,0,1,24,0Z" transform="translate(393 129)" fill="#fff"/>
  </g>
</svg>
