<svg xmlns="http://www.w3.org/2000/svg" width="120" height="120" viewBox="0 0 120 120">
  <g id="Group_708" data-name="Group 708" transform="translate(-425 -161)">
    <circle id="Ellipse_41" data-name="Ellipse 41" cx="60" cy="60" r="60" transform="translate(425 161)" fill="#fff" opacity="0.2"/>
    <g id="Layer_x0020_1" transform="translate(438.71 107.84)">
      <path id="Path_6432" data-name="Path 6432" d="M30.014,96.564h14.8v-1.58A13.859,13.859,0,0,1,58.638,81.16H76.412a1.975,1.975,0,0,1,1.975,1.976v59.046h5.955a1.975,1.975,0,0,1,0,3.951H9.238a1.975,1.975,0,0,1,0-3.951h5.955v-30.8A14.859,14.859,0,0,1,30.014,96.564Zm32.672,45.618V134.2H60.514v7.985Zm-6.124,0v-9.96a1.975,1.975,0,0,1,1.976-1.975h6.124a1.974,1.974,0,0,1,1.975,1.975v9.96h7.8V85.111h-15.8a9.909,9.909,0,0,0-9.874,9.874v47.2Zm-32.831-22.8h5.531a1.975,1.975,0,0,1,1.975,1.975v5.926a1.975,1.975,0,0,1-1.975,1.975H23.732a1.974,1.974,0,0,1-1.975-1.975v-5.926A1.974,1.974,0,0,1,23.732,119.383Zm3.556,3.951h-1.58v1.975h1.58Zm7.407-3.951h5.531a1.975,1.975,0,0,1,1.975,1.975v5.926a1.975,1.975,0,0,1-1.975,1.975H34.7a1.974,1.974,0,0,1-1.975-1.975v-5.926A1.974,1.974,0,0,1,34.7,119.383Zm3.556,3.951h-1.58v1.975h1.58v-1.975Zm-14.519-16.1h5.531a1.976,1.976,0,0,1,1.975,1.976v5.926a1.976,1.976,0,0,1-1.975,1.975H23.732a1.975,1.975,0,0,1-1.975-1.975V109.21A1.975,1.975,0,0,1,23.732,107.234Zm3.556,3.951h-1.58v1.976h1.58Zm7.407-3.951h5.531A1.976,1.976,0,0,1,42.2,109.21v5.926a1.976,1.976,0,0,1-1.975,1.975H34.7a1.975,1.975,0,0,1-1.975-1.975V109.21A1.975,1.975,0,0,1,34.7,107.234Zm3.556,3.951h-1.58v1.976h1.58v-1.976ZM53.2,99.333a1.975,1.975,0,0,1,0-3.951H70a1.975,1.975,0,0,1,0,3.951H53.2Zm0,21.728a1.975,1.975,0,0,1,0-3.951H70a1.975,1.975,0,0,1,0,3.951H53.2Zm0-10.864a1.975,1.975,0,0,1,0-3.951H70a1.975,1.975,0,0,1,0,3.951H53.2Zm-8.39-9.682h-14.8a10.908,10.908,0,0,0-10.871,10.87v30.8H44.815V100.515Z" fill="#fff"/>
    </g>
  </g>
</svg>
