<svg xmlns="http://www.w3.org/2000/svg" width="80" height="80" viewBox="0 0 80 80">
  <g id="Group_711" data-name="Group 711" transform="translate(-1406 -161)">
    <circle id="Ellipse_44" data-name="Ellipse 44" cx="40" cy="40" r="40" transform="translate(1406 161)" fill="#fff" opacity="0.2"/>
    <g id="b" transform="translate(1457.99 201.3)">
      <g id="c">
        <g id="Group_673" data-name="Group 673" transform="translate(-24.989 -21.3)">
          <path id="Path_6475" data-name="Path 6475" d="M21.134,83.81l-4.918,1.357a3.763,3.763,0,0,0-2.624,4.638l1.977,7.086a.871.871,0,0,0,.84.637h0a.871.871,0,0,0,.87-.87V91.443A2.37,2.37,0,0,1,19.286,89.1l4.131-.647" transform="translate(-13.122 -55.863)" fill="none" stroke="#fff" stroke-width="0.5"/>
          <path id="Path_6476" data-name="Path 6476" d="M15.754,97.194a1.207,1.207,0,0,1-1.16-.88l-1.977-7.086a4.1,4.1,0,0,1,2.858-5.055l4.918-1.357a.334.334,0,1,1,.177.644L15.65,84.816a3.426,3.426,0,0,0-2.391,4.228l1.977,7.086a.537.537,0,0,0,1.054-.143V90.772A2.693,2.693,0,0,1,18.581,88.1l4.131-.647a.336.336,0,0,1,.1.664l-4.131.647a2.028,2.028,0,0,0-1.724,2.014V95.99A1.209,1.209,0,0,1,15.754,97.2Z" transform="translate(-12.464 -55.192)" fill="#fff" stroke="#fff" stroke-width="0.5"/>
          <path id="Path_6477" data-name="Path 6477" d="M64.157,83.81l4.915,1.357A3.763,3.763,0,0,1,71.7,89.806l-1.977,7.086a.871.871,0,0,1-.84.637h0a.871.871,0,0,1-.87-.87V91.443A2.37,2.37,0,0,0,66,89.1l-4.131-.647" transform="translate(-45.395 -55.863)" fill="none" stroke="#fff" stroke-width="0.5"/>
          <path id="Path_6478" data-name="Path 6478" d="M68.215,97.187a1.209,1.209,0,0,1-1.207-1.207V90.764a2.028,2.028,0,0,0-1.724-2.014L61.153,88.1a.336.336,0,0,1,.1-.664l4.131.647a2.7,2.7,0,0,1,2.291,2.674v5.215a.537.537,0,0,0,1.054.143l1.977-7.086a3.426,3.426,0,0,0-2.391-4.228L63.4,83.448a.334.334,0,1,1,.177-.644L68.5,84.162a4.1,4.1,0,0,1,2.858,5.055L69.376,96.3a1.207,1.207,0,0,1-1.16.88Z" transform="translate(-44.728 -55.185)" fill="#fff" stroke="#fff" stroke-width="0.5"/>
          <g id="Group_672" data-name="Group 672" transform="translate(9.322 34.473)">
            <path id="Path_6482" data-name="Path 6482" d="M48.216,106.417H42.087l-.667-2.037h7.463Z" transform="translate(-41.086 -104.047)" fill="none" stroke="#fff" stroke-width="0.5"/>
            <path id="Path_6483" data-name="Path 6483" d="M47.549,106.088H41.42a.333.333,0,0,1-.317-.23l-.667-2.037a.332.332,0,0,1,.047-.3.337.337,0,0,1,.27-.14h7.463a.328.328,0,0,1,.27.14.333.333,0,0,1,.047.3l-.667,2.037a.333.333,0,0,1-.317.23Zm-5.885-.67h5.642l.447-1.367H41.213l.447,1.367Z" transform="translate(-40.42 -103.38)" fill="#fff" stroke="#fff" stroke-width="0.5"/>
          </g>
          <path id="Path_6484" data-name="Path 6484" d="M42.235,12.134A29.267,29.267,0,0,0,36.206,2.26a3.823,3.823,0,0,0-5.665,0,29.252,29.252,0,0,0-6.029,9.874c-2.024,5.879.207,15.429,3.921,22.725a1.131,1.131,0,0,0,1.01.617H37.3a1.131,1.131,0,0,0,1.01-.617c3.715-7.3,5.945-16.849,3.921-22.725ZM37,14.8a3.631,3.631,0,1,1-3.815-3.815A3.647,3.647,0,0,1,37,14.8Z" transform="translate(-19.985 -0.67)" fill="none" stroke="#fff" stroke-width="0.5"/>
          <path id="Path_6485" data-name="Path 6485" d="M36.679,35.143H28.82a1.46,1.46,0,0,1-1.307-.8c-4.885-9.6-5.5-18.463-3.941-22.988a29.635,29.635,0,0,1,6.1-9.987,4.155,4.155,0,0,1,6.162,0,29.7,29.7,0,0,1,6.1,9.987h0c1.557,4.525.944,13.388-3.941,22.988a1.46,1.46,0,0,1-1.307.8ZM32.748.67a3.492,3.492,0,0,0-2.584,1.147A28.967,28.967,0,0,0,24.2,11.574c-1.514,4.392-.89,13.041,3.9,22.465a.8.8,0,0,0,.71.433h7.859a.793.793,0,0,0,.71-.433c4.8-9.423,5.415-18.073,3.9-22.465h0a29,29,0,0,0-5.959-9.757A3.5,3.5,0,0,0,32.751.67Zm0,17.236a3.965,3.965,0,1,1,3.958-3.758h0A4,4,0,0,1,32.955,17.9c-.067,0-.133.007-.2.007Zm-.01-7.263c-.057,0-.11,0-.167,0a3.512,3.512,0,1,0,.167,0Zm3.631,3.485Z" transform="translate(-19.361 0)" fill="#fff" stroke="#fff" stroke-width="0.5"/>
          <path id="Path_6487" data-name="Path 6487" d="M50.461,83.91H49.037a.541.541,0,0,0-.537.477l-.37,3.138a5.134,5.134,0,0,0,0,1.2c.2,1.637.75,6.222.887,8.19a.732.732,0,0,0,.73.68h0a.732.732,0,0,0,.73-.68c.137-1.971.687-6.552.887-8.19a4.794,4.794,0,0,0,0-1.2l-.37-3.138a.541.541,0,0,0-.537-.477Z" transform="translate(-36.214 -55.93)" fill="none" stroke="#fff" stroke-width="0.5"/>
          <path id="Path_6488" data-name="Path 6488" d="M49.08,97.265a1.07,1.07,0,0,1-1.064-.994c-.14-2-.714-6.759-.884-8.173a5.279,5.279,0,0,1,0-1.277l.37-3.138a.876.876,0,0,1,.87-.774H49.8a.876.876,0,0,1,.87.774l.37,3.138a5.454,5.454,0,0,1,0,1.277c-.22,1.817-.75,6.249-.884,8.173a1.072,1.072,0,0,1-1.064.994ZM48.366,83.58a.211.211,0,0,0-.207.183l-.37,3.138a4.813,4.813,0,0,0,0,1.117c.173,1.417.747,6.2.887,8.21a.4.4,0,0,0,.794,0c.137-1.941.667-6.386.887-8.21a4.473,4.473,0,0,0,0-1.117l-.37-3.138a.209.209,0,0,0-.207-.183H48.356Z" transform="translate(-35.546 -55.263)" fill="#fff" stroke="#fff" stroke-width="0.5"/>
          <path id="Path_6489" data-name="Path 6489" d="M40.526,16.931a9.247,9.247,0,0,1-5.865-1.7.336.336,0,0,1,.44-.507,8.763,8.763,0,0,0,5.425,1.534,10.933,10.933,0,0,0,3.2-.45.334.334,0,0,1,.193.64,11.681,11.681,0,0,1-3.395.477Z" transform="translate(-27.182 -9.762)" fill="#fff" stroke="#fff" stroke-width="0.5"/>
          <path id="Path_6490" data-name="Path 6490" d="M65.239,16.013a.331.331,0,0,1-.3-.193.336.336,0,0,1,.16-.447,5.144,5.144,0,0,0,1.09-.654.337.337,0,0,1,.474.037.333.333,0,0,1-.033.47,5.971,5.971,0,0,1-1.244.754.357.357,0,0,1-.143.03Z" transform="translate(-47.417 -9.758)" fill="#fff" stroke="#fff" stroke-width="0.5"/>
        </g>
      </g>
    </g>
  </g>
</svg>
