<svg id="_5402370_bin_delete_remove_trash_can_icon" data-name="5402370_bin_delete_remove_trash_can_icon" xmlns="http://www.w3.org/2000/svg" width="18" height="18" viewBox="0 0 18 18">
  <path id="Path_1" data-name="Path 1" d="M21,6a1,1,0,0,1-1,1H4A1,1,0,0,1,4,5H9V4.5A1.5,1.5,0,0,1,10.5,3h3A1.5,1.5,0,0,1,15,4.5V5h5A1,1,0,0,1,21,6Z" transform="translate(-3 -3)" fill="#e00034"/>
  <path id="Path_2" data-name="Path 2" d="M5.5,9v9.5A2.5,2.5,0,0,0,8,21h8a2.5,2.5,0,0,0,2.5-2.5V9ZM11,17a1,1,0,0,1-2,0V13a1,1,0,0,1,2,0Zm4,0a1,1,0,0,1-2,0V13a1,1,0,0,1,2,0Z" transform="translate(-3 -3)" fill="#e00034"/>
</svg>
