<svg xmlns="http://www.w3.org/2000/svg" width="19.934" height="18.942" viewBox="0 0 19.934 18.942">
  <g id="_5402373_write_modify_tool_edit_pen_icon_1_" data-name="5402373_write_modify_tool_edit_pen_icon (1)" transform="translate(-1.501 -2.565)">
    <path id="Path_6406" data-name="Path 6406" d="M17.778,21.942H5.156A3.076,3.076,0,0,1,2,18.952V6.99A3.076,3.076,0,0,1,5.156,4H9.363a1.025,1.025,0,0,1,1.052,1,1.025,1.025,0,0,1-1.052,1H5.156a1.025,1.025,0,0,0-1.052,1V18.952a1.025,1.025,0,0,0,1.052,1H17.778a1.025,1.025,0,0,0,1.052-1V14.965a1.053,1.053,0,0,1,2.1,0v3.987A3.076,3.076,0,0,1,17.778,21.942Z" transform="translate(-0.499 -0.435)" fill="#ffb300"/>
    <path id="Path_6407" data-name="Path 6407" d="M14.6,5.87l-4.95,5a.41.41,0,0,0-.13.23l-1,3.82a.48.48,0,0,0,.13.48.47.47,0,0,0,.35.1.32.32,0,0,0,.13,0l3.82-1a.41.41,0,0,0,.23-.13L18.13,9.4Z" fill="#ffb300"/>
    <path id="Path_6408" data-name="Path 6408" d="M21,4.45,19.55,3a1.52,1.52,0,0,0-2.13,0L16,4.45,19.55,8,21,6.58a1.52,1.52,0,0,0,0-2.13Z" fill="#ffb300"/>
  </g>
</svg>
