<svg width="96" height="96" xmlns="http://www.w3.org/2000/svg" fill="#4154f1" cx="202.028" cy="58.342" r="12.26" xmlns:xlink="http://www.w3.org/1999/xlink" overflow="hidden"><defs><clipPath id="clip0"><rect x="977" y="296" width="96" height="96"/></clipPath></defs><g clip-path="url(#clip0)" transform="translate(-977 -296)"><path d="M1021 339C1029.84 339 1037 331.837 1037 323 1037 314.163 1029.84 307 1021 307 1012.16 307 1005 314.163 1005 323 1005 331.837 1012.16 339 1021 339ZM1021 309C1028.73 309 1035 315.268 1035 323 1035 330.732 1028.73 337 1021 337 1013.27 337 1007 330.732 1007 323 1007.01 315.271 1013.27 309.008 1021 309Z"/><path d="M1041.1 349.694C1042.17 349.391 1043.25 349.186 1044.35 349.083 1041.09 347.344 1037.64 345.969 1034.07 344.983 1029.84 343.681 1025.43 343.013 1021 343 1016.58 343.075 1012.18 343.739 1007.94 344.976 1002.39 346.6 997.167 349.15 992.476 352.518 990.326 354.204 989.049 356.768 989 359.5L989 375 991 375 991 359.5C991.044 357.391 992.031 355.413 993.688 354.109 998.177 350.895 1003.18 348.461 1008.48 346.909 1012.55 345.719 1016.76 345.077 1021 345 1025.24 345.012 1029.46 345.653 1033.51 346.9 1036.11 347.632 1038.65 348.566 1041.1 349.694Z"/><path d="M1046 352C1037.72 352 1031 358.716 1031 367 1031 375.284 1037.72 382 1046 382 1054.28 382 1061 375.284 1061 367 1060.99 358.72 1054.28 352.009 1046 352ZM1046 380C1038.82 380 1033 374.18 1033 367 1033 359.82 1038.82 354 1046 354 1053.18 354 1059 359.82 1059 367 1058.99 374.176 1053.18 379.992 1046 380Z"/><path d="M1047 360 1045 360 1045 366 1039 366 1039 368 1045 368 1045 374 1047 374 1047 368 1053 368 1053 366 1047 366 1047 360Z"/></g></svg>