<svg width="133" height="132" xmlns="http://www.w3.org/2000/svg" fill="#4154f1" cx="202.028" cy="58.342" r="12.26" xmlns:xlink="http://www.w3.org/1999/xlink" overflow="hidden"><defs><clipPath id="clip0"><rect x="544" y="259" width="133" height="132"/></clipPath></defs><g clip-path="url(#clip0)" transform="translate(-544 -259)"><path d="M52.25 22 59.125 22 59.125 27.5 52.25 27.5Z" transform="matrix(1.00758 0 0 1 544 259)"/><path d="M35.75 55 42.625 55 42.625 60.5 35.75 60.5Z" transform="matrix(1.00758 0 0 1 544 259)"/><path d="M19.25 88 26.125 88 26.125 93.5 19.25 93.5Z" transform="matrix(1.00758 0 0 1 544 259)"/><path d="M52.25 88 59.125 88 59.125 93.5 52.25 93.5Z" transform="matrix(1.00758 0 0 1 544 259)"/><path d="M85.25 88 92.125 88 92.125 93.5 85.25 93.5Z" transform="matrix(1.00758 0 0 1 544 259)"/><path d="M81.125 27.6004C80.1541 28.1801 79.2342 28.8412 78.375 29.5763L78.375 48.125 71.7241 48.125C71.8844 49.0566 72.1109 49.9756 72.402 50.875L94.875 50.875 94.875 64.2936C95.8071 64.1266 96.7262 63.8931 97.625 63.5951L97.625 48.125 81.125 48.125Z" transform="matrix(1.00758 0 0 1 544 259)"/><path d="M111.375 99.9694 111.375 114.125 81.125 114.125 81.125 83.875 101.765 83.875 101.207 82.9359C100.868 82.3628 100.589 81.7559 100.375 81.125L97.625 81.125 97.625 74.9829C96.723 75.1699 95.8045 75.3115 94.875 75.4174L94.875 81.125 64.625 81.125 64.625 60.2539C63.4996 58.3325 62.5857 56.2947 61.8998 54.1764 61.886 54.1337 61.875 54.1351 61.875 54.1764L61.875 81.125 31.625 81.125 31.625 50.875 61.0294 50.875C60.8451 49.973 60.7049 49.0545 60.6018 48.125L48.125 48.125 48.125 17.875 75.9399 17.875C77.5906 16.9216 79.3264 16.1238 81.125 15.4921L81.125 15.125 45.375 15.125 45.375 48.125 28.875 48.125 28.875 81.125 12.375 81.125 12.375 116.875 114.125 116.875 114.125 102.737C113.031 102.01 112.095 101.068 111.375 99.9694ZM45.375 114.125 15.125 114.125 15.125 83.875 45.375 83.875ZM78.375 114.125 48.125 114.125 48.125 83.875 78.375 83.875Z" transform="matrix(1.00758 0 0 1 544 259)"/><path d="M127.089 90.1299 117.164 73.4511C115.361 70.7847 111.9 69.8046 108.967 71.1301L106.415 66.847C118.556 58.539 121.662 41.9622 113.354 29.822 105.046 17.6815 88.4697 14.5749 76.3293 22.8829 64.189 31.1909 61.0823 47.7676 69.3903 59.9079 77.0978 71.1707 92.0708 74.786 104.068 68.2811L106.601 72.5312C105.563 73.3987 104.777 74.5289 104.324 75.8037 103.707 77.4576 103.864 79.3009 104.752 80.8266L114.675 97.5068C115.834 99.352 117.885 100.444 120.062 100.375 121.487 100.367 122.883 99.9749 124.103 99.2406 125.688 98.3224 126.896 96.8734 127.515 95.15 128.131 93.4971 127.975 91.6552 127.089 90.1299ZM67.4053 47.1515C66.0458 33.9318 75.6603 22.1132 88.88 20.7537 102.1 19.3942 113.918 29.0088 115.278 42.2285 116.637 55.4481 107.023 67.2668 93.803 68.6263 92.1664 68.7945 90.5167 68.7945 88.88 68.6263 77.5428 67.4498 68.5817 58.4887 67.4053 47.1515ZM124.917 94.2507C124.509 95.358 123.723 96.2859 122.698 96.8715 120.578 98.1296 118.04 97.7831 117.039 96.1001L107.113 79.4214C106.646 78.5903 106.575 77.5943 106.92 76.7057 107.328 75.599 108.114 74.6716 109.138 74.0864 109.94 73.6004 110.858 73.3388 111.796 73.3288 112.997 73.268 114.14 73.8496 114.799 74.8564L124.722 91.5365C125.19 92.3666 125.261 93.3622 124.917 94.2507Z" transform="matrix(1.00758 0 0 1 544 259)"/></g></svg>