<svg width="96" height="96" xmlns="http://www.w3.org/2000/svg" fill="#4154f1" cx="202.028" cy="58.342" r="12.26" xmlns:xlink="http://www.w3.org/1999/xlink" overflow="hidden"><defs><clipPath id="clip0"><rect x="717" y="289" width="96" height="96"/></clipPath></defs><g clip-path="url(#clip0)" transform="translate(-717 -289)"><path d="M737.001 360.92C738.013 360.975 740.963 361 740.963 361L795.004 361C801.656 360.974 807.027 355.56 807 348.909 806.974 342.333 801.679 336.994 795.104 336.914L794.104 336.914C794.095 332.068 791.749 327.524 787.804 324.71 783.807 321.914 778.711 321.207 774.104 322.81 769.58 313.966 758.743 310.463 749.898 314.986 743.914 318.047 740.135 324.19 740.102 330.912L740.102 331.112C739.317 330.984 738.524 330.919 737.729 330.919 729.429 330.909 722.693 337.63 722.683 345.929 722.681 348.137 723.165 350.318 724.101 352.318 726.53 357.306 731.463 360.595 737.001 360.92ZM727.299 338.116C729.794 334.876 733.638 332.96 737.728 332.918 738.415 332.919 739.1 332.975 739.778 333.085L742.101 333.465 742.101 330.912C742.156 322.081 749.358 314.966 758.189 315.02 764.156 315.057 769.605 318.412 772.324 323.723L773.118 325.27 774.76 324.699C781.508 322.286 788.934 325.801 791.347 332.548 791.848 333.949 792.104 335.426 792.104 336.914L792.104 338.914 795.104 338.914C800.651 338.995 805.081 343.558 804.999 349.104 804.919 354.574 800.475 358.974 795.004 359L738.892 359 737.11 358.923C729.941 358.614 724.38 352.552 724.689 345.383 724.803 342.752 725.713 340.218 727.299 338.116Z"/></g></svg>