<svg width="96" height="96" xmlns="http://www.w3.org/2000/svg" fill="#4154f1" cx="202.028" cy="58.342" r="12.26" xmlns:xlink="http://www.w3.org/1999/xlink" overflow="hidden"><defs><clipPath id="clip0"><rect x="450" y="297" width="96" height="96"/></clipPath></defs><g clip-path="url(#clip0)" transform="translate(-450 -297)"><path d="M529.971 312 529.971 378 464 378 464 380 531.971 380 531.971 312 529.971 312Z"/><path d="M474.97 323C475.07 323 475.154 322.979 475.248 322.972L482.487 343.886C480.763 345.261 480.48 347.774 481.855 349.497 483.231 351.221 485.743 351.504 487.467 350.129 488.419 349.37 488.972 348.218 488.97 347 488.968 346.754 488.943 346.508 488.896 346.266L504.227 334.585C504.744 334.84 505.311 334.978 505.887 334.992L514.567 361.821C512.586 363.239 512.129 365.994 513.547 367.975 514.965 369.956 517.72 370.413 519.701 368.995 521.682 367.577 522.139 364.822 520.721 362.841 519.744 361.476 518.077 360.784 516.421 361.055L507.835 334.518C509.777 333.481 510.511 331.066 509.474 329.123 508.437 327.181 506.022 326.447 504.079 327.484 502.137 328.521 501.403 330.936 502.44 332.879 502.51 333.009 502.586 333.135 502.67 333.257L488.009 344.427C487.257 343.526 486.144 343.003 484.97 343 484.752 343.004 484.535 343.026 484.32 343.065L477.149 322.348C478.994 321.141 479.51 318.666 478.303 316.822 477.095 314.977 474.621 314.461 472.776 315.668 470.931 316.876 470.415 319.35 471.623 321.194 472.362 322.323 473.621 323.003 474.97 323Z"/></g></svg>