<svg width="157" height="157" xmlns="http://www.w3.org/2000/svg" fill="#4154f1" cx="202.028" cy="58.342" r="12.26" xmlns:xlink="http://www.w3.org/1999/xlink" overflow="hidden"><defs><clipPath id="clip0"><rect x="142" y="241" width="157" height="157"/></clipPath></defs><g clip-path="url(#clip0)" transform="translate(-142 -241)"><path d="M166.531 285.156C169.505 285.145 172.097 283.129 172.841 280.25L181.25 280.25C183.96 280.25 186.156 282.447 186.156 285.156L186.156 303.869C186.882 303.646 187.618 303.453 188.367 303.301 188.668 302.361 189.022 301.439 189.427 300.539L189.427 285.156C189.422 280.642 185.764 276.985 181.25 276.979L172.839 276.979C171.929 273.489 168.363 271.397 164.873 272.307 161.383 273.216 159.291 276.783 160.201 280.273 160.951 283.153 163.555 285.161 166.531 285.156Z"/><path d="M172.041 335.854 159.99 335.854C157.28 335.854 155.083 333.658 155.083 330.948L155.083 320.903C158.581 320 160.685 316.432 159.782 312.934 158.879 309.436 155.311 307.332 151.812 308.235 148.314 309.138 146.211 312.706 147.114 316.205 147.709 318.509 149.508 320.308 151.812 320.903L151.812 330.948C151.818 335.462 155.476 339.12 159.99 339.125L173.99 339.125C173.251 338.091 172.599 336.997 172.041 335.854Z"/><path d="M215.594 265.299 215.594 285.272C216.692 285.354 217.785 285.504 218.865 285.722L218.865 265.299C222.363 264.396 224.466 260.828 223.563 257.33 222.66 253.832 219.092 251.728 215.594 252.631 212.096 253.534 209.992 257.102 210.895 260.6 211.49 262.905 213.289 264.704 215.594 265.299Z"/><path d="M246.667 294.969C246.667 292.259 248.863 290.062 251.573 290.062L261.385 290.062C265.899 290.057 269.557 286.399 269.562 281.885L269.562 278.382C273.061 277.479 275.164 273.911 274.261 270.413 273.358 266.915 269.79 264.811 266.292 265.714 262.794 266.618 260.69 270.186 261.593 273.684 262.188 275.988 263.987 277.787 266.292 278.382L266.292 281.885C266.292 284.595 264.095 286.792 261.385 286.792L251.573 286.792C247.059 286.797 243.401 290.455 243.396 294.969L243.396 295.75C244.528 296.221 245.622 296.78 246.667 297.422Z"/><path d="M227.042 372.066 227.042 348.938 223.771 348.938 223.771 372.066C220.273 372.969 218.169 376.537 219.072 380.035 219.976 383.533 223.544 385.637 227.042 384.733 230.54 383.83 232.643 380.262 231.74 376.764 231.145 374.46 229.346 372.661 227.042 372.066Z"/><path d="M199.24 350.573C199.24 353.283 197.043 355.479 194.333 355.479L184.521 355.479C180.007 355.485 176.349 359.142 176.344 363.656L176.344 367.159C172.846 368.063 170.742 371.631 171.645 375.129 172.548 378.627 176.116 380.73 179.615 379.827 183.113 378.924 185.216 375.356 184.313 371.858 183.718 369.554 181.919 367.754 179.615 367.159L179.615 363.656C179.615 360.947 181.811 358.75 184.521 358.75L194.333 358.75C198.847 358.745 202.505 355.087 202.51 350.573L202.51 348.938 199.24 348.938Z"/><path d="M287.552 312.958C284.578 312.969 281.986 314.985 281.243 317.865L267.355 317.865C268.045 318.898 268.638 319.993 269.126 321.135L281.241 321.135C282.151 324.625 285.717 326.717 289.207 325.808 292.697 324.898 294.789 321.332 293.879 317.842 293.129 314.963 290.527 312.955 287.552 312.958Z"/><path d="M272.833 357.115C269.859 357.126 267.267 359.141 266.524 362.021L258.115 362.021C255.405 362.021 253.208 359.824 253.208 357.115L253.208 348.735C252.309 348.863 251.402 348.931 250.494 348.938L249.938 348.938 249.938 357.115C249.943 361.628 253.601 365.286 258.115 365.292L266.524 365.292C267.434 368.782 271 370.874 274.49 369.964 277.98 369.054 280.072 365.488 279.162 361.998 278.412 359.118 275.809 357.11 272.833 357.115Z"/><path d="M178.319 314.988C174.222 320.353 173.488 327.565 176.421 333.645 179.357 339.741 185.42 343.716 192.181 343.979L192.286 343.979 197.096 344.028 250.492 344.028C258.856 344.116 265.708 337.406 265.795 329.042 265.876 321.323 260.139 314.778 252.476 313.848 251.628 309.123 248.94 304.928 245.002 302.184 241.907 300.02 238.22 298.863 234.444 298.871 233.273 298.87 232.105 298.979 230.955 299.198 226.956 293.45 220.388 290.035 213.386 290.062 211.716 290.063 210.051 290.257 208.426 290.641 200.092 292.565 193.74 299.322 192.333 307.758 186.816 307.954 181.676 310.606 178.319 314.988ZM192.963 311.017C193.749 311.017 194.533 311.079 195.31 311.2 195.318 311.202 195.326 311.197 195.327 311.189 195.327 311.188 195.328 311.187 195.328 311.186 195.328 311.097 195.328 310.788 195.328 310.672 195.588 302.567 201.271 295.653 209.171 293.827 217.218 291.915 225.54 295.68 229.416 302.986 229.422 302.99 229.43 302.99 229.436 302.986 234.036 301.386 239.124 302.085 243.123 304.866 247.021 307.569 249.387 311.977 249.486 316.72 249.486 316.774 249.486 316.968 249.486 317.027 249.486 317.037 249.486 317.042 249.504 317.04 249.83 317.002 250.158 316.987 250.485 316.995 257.048 316.918 262.43 322.175 262.507 328.737 262.584 335.3 257.326 340.682 250.764 340.759 250.671 340.76 250.578 340.76 250.485 340.759L197.128 340.759 192.32 340.71C186.768 340.491 181.789 337.23 179.369 332.228 176.979 327.253 177.579 321.357 180.923 316.965 183.786 313.21 188.241 311.01 192.963 311.017Z"/></g></svg>