<svg width="96" height="96" xmlns="http://www.w3.org/2000/svg" fill="#4154f1" cx="202.028" cy="58.342" r="12.26" xmlns:xlink="http://www.w3.org/1999/xlink" overflow="hidden"><defs><clipPath id="clip0"><rect x="184" y="297" width="96" height="96"/></clipPath></defs><g clip-path="url(#clip0)" transform="translate(-184 -297)"><path d="M218.382 355.541 212.82 356.573 207.257 355.541 206.52 361.15 203.82 366.121 208.926 368.556 212.82 372.656 216.713 368.556 221.82 366.121 219.12 361.15ZM212.82 368.214C210.025 368.214 207.76 365.949 207.76 363.154 207.76 360.359 210.025 358.094 212.82 358.094 215.615 358.094 217.88 360.359 217.88 363.154 217.881 365.948 215.616 368.213 212.822 368.214 212.821 368.214 212.821 368.214 212.82 368.214Z"/><path d="M221.561 325.119 223.11 319.871 217.783 318.6 213.266 315.5 210.412 320.174 206.072 323.513 209.635 327.671 211.469 332.828 216.525 330.728 222 330.577ZM215.2 329.319C212.494 329.319 210.3 327.125 210.3 324.419 210.3 321.713 212.494 319.519 215.2 319.519 217.906 319.519 220.1 321.713 220.1 324.419 220.098 327.124 217.905 329.316 215.2 329.316Z"/><path d="M255.262 339.421 252.387 334.737 247.861 337.854 242.518 339.141 244.084 344.407 243.657 349.886 249.151 350.024 254.23 352.124 256.06 346.941 259.626 342.762ZM250.515 348.614C247.801 348.614 245.6 346.414 245.6 343.699 245.6 340.984 247.801 338.784 250.515 338.784 253.229 338.784 255.43 340.984 255.43 343.699 255.43 343.699 255.43 343.7 255.43 343.7 255.43 346.414 253.23 348.614 250.516 348.614 250.516 348.614 250.515 348.614 250.515 348.614Z"/><path d="M246.945 328.541C243.385 328.546 239.904 329.589 236.927 331.541 236.932 331.375 236.945 331.21 236.945 331.041 236.964 320.824 228.697 312.526 218.479 312.507 208.262 312.488 199.964 320.755 199.945 330.972 199.936 336.046 202.01 340.9 205.683 344.4 197.589 350.621 196.071 362.226 202.292 370.32 208.514 378.413 220.118 379.931 228.212 373.71 232.115 370.71 234.66 366.276 235.283 361.393 238.572 364.088 242.697 365.555 246.949 365.544 257.166 365.544 265.449 357.261 265.449 347.044 265.449 336.827 257.166 328.544 246.949 328.544ZM201.945 331.041C201.945 321.928 209.332 314.541 218.445 314.541 227.558 314.541 234.945 321.928 234.945 331.041 234.942 331.75 234.895 332.458 234.803 333.161 231.917 335.677 229.879 339.022 228.967 342.74 228.488 343.134 227.987 343.501 227.467 343.84 221.481 339.664 213.591 339.429 207.367 343.24 203.917 340.122 201.947 335.691 201.945 331.041ZM216.945 375.541C207.832 375.541 200.445 368.154 200.445 359.041 200.445 349.928 207.832 342.541 216.945 342.541 226.058 342.541 233.445 349.928 233.445 359.041 233.435 368.149 226.053 375.531 216.945 375.541ZM246.945 363.541C242.639 363.549 238.504 361.861 235.435 358.841 235.387 354.235 233.613 349.814 230.465 346.452 230.789 337.345 238.434 330.225 247.541 330.548 256.647 330.872 263.768 338.517 263.444 347.624 263.129 356.507 255.833 363.543 246.945 363.538Z"/></g></svg>