<svg width="74" height="74" xmlns="http://www.w3.org/2000/svg" xmlns:xlink="http://www.w3.org/1999/xlink" overflow="hidden" fill="#4154f1" cx="202.028" cy="58.342" r="12.26"><defs><clipPath id="clip0"><rect x="396" y="270" width="74" height="74"/></clipPath></defs><g clip-path="url(#clip0)" transform="translate(-396 -270)"><path d="M432.608 295.717C435.163 295.717 437.233 293.647 437.233 291.092 437.233 288.538 435.163 286.467 432.608 286.467 430.054 286.467 427.983 288.538 427.983 291.092 427.983 293.647 430.054 295.717 432.608 295.717ZM432.608 288.009C434.311 288.009 435.692 289.389 435.692 291.092 435.692 292.795 434.311 294.176 432.608 294.176 430.906 294.176 429.525 292.795 429.525 291.092 429.525 289.389 430.906 288.009 432.608 288.009Z"/><path d="M413.695 282.541 414 282.968 415.484 281.913 415.175 281.482 414.272 279.815C413.959 279.262 413.257 279.066 412.704 279.379 412.15 279.692 411.955 280.394 412.268 280.947 412.308 281.018 412.355 281.085 412.409 281.145Z"/><path d="M415.028 285.29C415.656 287.095 416.729 288.712 418.147 289.992L419.326 291.057C419.48 291.195 419.709 291.208 419.877 291.088L421.253 290.106C421.421 289.985 421.483 289.764 421.402 289.574L420.778 288.109C420.026 286.355 418.846 284.817 417.345 283.638L415.941 282.534 414.439 283.601Z"/><path d="M430.019 278.673 431.715 277.817 432.208 277.64 431.598 275.925 431.101 276.103 429.251 276.518C428.612 276.712 428.25 277.385 428.44 278.024 428.699 278.637 429.404 278.926 430.019 278.673Z"/><path d="M434.72 277.284C436.627 277.169 438.474 276.577 440.092 275.562L441.437 274.714C441.612 274.604 441.687 274.387 441.617 274.193L441.046 272.602C440.977 272.407 440.781 272.287 440.576 272.313L439 272.516C437.106 272.759 435.303 273.474 433.758 274.597L432.317 275.653 432.934 277.389Z"/><path d="M449.601 297.394 451.409 297.042 451.571 295.26C451.742 293.358 451.432 291.444 450.669 289.693L450.035 288.236C449.951 288.047 449.748 287.941 449.545 287.98L447.887 288.308C447.684 288.348 447.537 288.524 447.532 288.73L447.497 290.318C447.456 292.228 447.896 294.116 448.777 295.811Z"/><path d="M454.294 300.217C453.784 299.292 452.823 298.705 451.767 298.675L451.65 298.317 451.549 297.803 449.762 298.151 449.864 298.67 449.916 299.4 449.013 299.965 444.877 303.427 439.803 299.424C439.583 299.251 439.348 299.098 439.1 298.967L438.55 298.675C436.708 297.799 434.698 297.333 432.658 297.309 430.689 297.247 428.721 297.434 426.799 297.864L420.001 299.868 416.106 294.462C415.17 293.119 413.355 292.731 411.952 293.573 410.556 294.471 410.15 296.33 411.044 297.729 411.074 297.776 411.104 297.822 411.137 297.866L416.363 305.12C417.111 306.156 418.431 306.608 419.657 306.248L426.246 304.302 426.246 338.527C426.217 340.164 427.461 341.543 429.093 341.681 429.148 341.681 429.204 341.686 429.258 341.686 430.857 341.684 432.176 340.435 432.265 338.839 432.265 338.782 432.268 338.727 432.268 338.671L432.268 320.773 433.352 320.773 437.64 326.491 439.746 337.022C440.078 338.656 441.672 339.711 443.305 339.379 443.41 339.357 443.514 339.33 443.617 339.298 445.096 338.795 445.964 337.265 445.635 335.737L443.408 324.637C443.321 324.196 443.136 323.78 442.868 323.419L438.987 318.254 438.987 306.449 443.072 309.67C444.194 310.551 445.78 310.528 446.875 309.614L453.518 304.037C454.651 303.109 454.975 301.513 454.294 300.217ZM452.534 302.85 445.881 308.432C445.347 308.881 444.572 308.894 444.023 308.465L437.455 303.282C437.451 303.28 437.446 303.28 437.444 303.284 437.443 303.285 437.442 303.287 437.442 303.288L437.442 318.766 441.628 324.348C441.76 324.524 441.85 324.728 441.893 324.943L444.126 336.06C444.291 336.815 443.869 337.574 443.141 337.833 442.345 338.065 441.511 337.608 441.278 336.811 441.27 336.781 441.262 336.75 441.255 336.719L439.081 325.844 434.122 319.23 430.725 319.23 430.725 338.673 430.725 338.756C430.705 339.145 430.53 339.51 430.239 339.77 429.958 340.03 429.585 340.165 429.203 340.146 428.383 340.069 427.764 339.369 427.788 338.546L427.788 302.252C427.787 302.248 427.784 302.245 427.78 302.245 427.779 302.245 427.778 302.245 427.778 302.245L419.221 304.771C418.624 304.946 417.98 304.726 417.615 304.221L412.389 296.967 412.342 296.902C411.906 296.228 412.093 295.329 412.762 294.886 413.469 294.469 414.378 294.671 414.843 295.348L419.391 301.655 427.012 299.408 427.191 299.352C428.974 298.957 430.8 298.788 432.625 298.848 434.439 298.866 436.227 299.277 437.867 300.051L438.389 300.325C438.552 300.412 438.707 300.513 438.851 300.628L444.911 305.407 449.881 301.24 450.197 301.041C450.44 301.446 450.906 301.66 451.371 301.581 451.935 301.443 452.315 300.918 452.271 300.34 452.553 300.463 452.788 300.675 452.94 300.943 453.276 301.593 453.105 302.39 452.534 302.847Z"/></g></svg>