<svg width="96" height="96" xmlns="http://www.w3.org/2000/svg" fill="#4154f1" cx="202.028" cy="58.342" r="12.26" xmlns:xlink="http://www.w3.org/1999/xlink" overflow="hidden"><defs><clipPath id="clip0"><rect x="985" y="297" width="96" height="96"/></clipPath></defs><g clip-path="url(#clip0)" transform="translate(-985 -297)"><path d="M1063.53 318.9C1052.91 318.042 1043.02 313.18 1035.85 305.3 1034.5 303.731 1032.13 303.556 1030.56 304.908 1030.42 305.029 1030.29 305.16 1030.17 305.3 1023 313.18 1013.11 318.037 1002.49 318.887 1000.52 319.078 999.014 320.746 999.03 322.73L999.03 332.413C999.03 353.476 1012.39 372.742 1030.92 384.663 1032.19 385.486 1033.83 385.486 1035.1 384.663 1053.64 372.742 1066.99 353.486 1066.99 332.423L1066.99 322.742C1067.01 320.757 1065.51 319.087 1063.53 318.9ZM1064.99 332.426C1064.99 351.611 1053.42 370.511 1034.02 382.983 1033.41 383.382 1032.62 383.382 1032 382.983 1012.61 370.51 1001.03 351.606 1001.03 332.415L1001.03 322.732C1001.01 321.789 1001.71 320.988 1002.65 320.882 1013.78 320.001 1024.15 314.911 1031.65 306.648 1031.99 306.249 1032.48 306.014 1033.01 306 1033.53 306.014 1034.03 306.249 1034.37 306.648 1041.88 314.91 1052.25 320.003 1063.37 320.892 1064.31 320.997 1065.01 321.799 1065 322.742Z"/><path d="M1007.03 326.4 1007.03 332.418C1007.03 348.823 1016.69 365.118 1033.01 376.445 1049.33 365.112 1058.99 348.823 1058.99 332.425L1058.99 326.4C1049.28 324.854 1040.24 320.465 1033.01 313.786 1025.79 320.467 1016.75 324.857 1007.03 326.4ZM1056.99 332.428C1056.99 347.658 1048.06 363.107 1033.01 373.993 1017.97 363.1 1009.03 347.652 1009.03 332.415L1009.03 328.075C1017.9 326.369 1026.17 322.366 1033.01 316.466 1039.85 322.367 1048.12 326.372 1056.99 328.081Z"/><path d="M1023.71 333.293 1022.29 334.707 1031.59 344 1022.29 353.293 1023.71 354.707 1033 345.414 1042.29 354.707 1043.71 353.293 1034.41 344 1043.71 334.707 1042.29 333.293 1033 342.586 1023.71 333.293Z"/></g></svg>