<svg xmlns="http://www.w3.org/2000/svg" width="120" height="120" viewBox="0 0 120 120">
  <g id="Group_658" data-name="Group 658" transform="translate(-1163 -161)">
    <circle id="Ellipse_42" data-name="Ellipse 42" cx="60" cy="60" r="60" transform="translate(1163 161)" fill="#fff" opacity="0.2"/>
    <path id="_3507766_add_alarm_alert_clock_iconoteka_icon" data-name="3507766_add_alarm_alert_clock_iconoteka_icon" d="M35.7,10.236A27.707,27.707,0,1,0,63.4,37.943,27.707,27.707,0,0,0,35.7,10.236Zm0,49.257a21.55,21.55,0,1,1,21.55-21.55A21.55,21.55,0,0,1,35.7,59.493ZM63.988,9.651A39.652,39.652,0,0,0,51.273,1l-2.4,5.665A34.111,34.111,0,0,1,59.647,13.93,35.188,35.188,0,0,1,65.4,21.6l5.387-3.079a40.607,40.607,0,0,0-6.8-8.866ZM22.519,6.572,20.118,1A39.652,39.652,0,0,0,7.4,9.651a40.606,40.606,0,0,0-6.8,9.02L5.987,21.75a35.188,35.188,0,0,1,5.757-7.758A34.11,34.11,0,0,1,22.519,6.726ZM43.177,26.8,35.7,34.464l-7.481-7.512-3.51,3.51,7.512,7.481-7.512,7.481,3.51,3.51L35.7,41.422l7.481,7.512,3.51-3.51-7.512-7.481,7.512-7.481Z" transform="translate(1187.4 188)" fill="#fff"/>
  </g>
</svg>
